<svg width="1200" height="700" viewBox="0 0 1200 700" fill="none" xmlns="http://www.w3.org/2000/svg">
  <defs>
    <linearGradient id="bg2" x1="60" y1="40" x2="1140" y2="660" gradientUnits="userSpaceOnUse">
      <stop stop-color="#F8FBFF"/>
      <stop offset="1" stop-color="#EEF5FB"/>
    </linearGradient>
    <linearGradient id="accent2" x1="0" y1="0" x2="1" y2="1">
      <stop stop-color="#38B449"/>
      <stop offset="1" stop-color="#06B6D4"/>
    </linearGradient>
  </defs>
  <rect width="1200" height="700" rx="28" fill="url(#bg2)"/>
  <g opacity="0.22">
    <path d="M0 100H1200M0 200H1200M0 300H1200M0 400H1200M0 500H1200M0 600H1200" stroke="#0F172A"/>
    <path d="M100 0V700M200 0V700M300 0V700M400 0V700M500 0V700M600 0V700M700 0V700M800 0V700M900 0V700M1000 0V700M1100 0V700" stroke="#0F172A"/>
  </g>
  <text x="60" y="70" fill="#0F172A" font-size="28" font-family="Arial, sans-serif" font-weight="700">Qwe 平台中的 AI 工程协同</text>
  <text x="60" y="98" fill="#64748B" font-size="14" font-family="Arial, sans-serif">在企业治理边界内实现 Agent 协同开发、执行与优化</text>

  <g>
    <rect x="60" y="140" width="340" height="220" rx="20" fill="white" stroke="#E2E8F0"/>
    <rect x="60" y="140" width="340" height="4" rx="2" fill="#38B449"/>
    <text x="84" y="176" fill="#0F172A" font-size="20" font-family="Arial, sans-serif" font-weight="700">Build with Agent</text>
    <text x="84" y="204" fill="#64748B" font-size="13" font-family="Arial, sans-serif">开发协同</text>
    <text x="84" y="238" fill="#334155" font-size="14" font-family="Arial, sans-serif">• 页面/组件搭建建议</text>
    <text x="84" y="266" fill="#334155" font-size="14" font-family="Arial, sans-serif">• 配置与逻辑生成辅助</text>
    <text x="84" y="294" fill="#334155" font-size="14" font-family="Arial, sans-serif">• 模型与接口映射建议</text>
    <text x="84" y="322" fill="#334155" font-size="14" font-family="Arial, sans-serif">• 开发效率与规范一致性提升</text>
  </g>

  <g>
    <rect x="430" y="140" width="340" height="220" rx="20" fill="white" stroke="#E2E8F0"/>
    <rect x="430" y="140" width="340" height="4" rx="2" fill="#06B6D4"/>
    <text x="454" y="176" fill="#0F172A" font-size="20" font-family="Arial, sans-serif" font-weight="700">Run with Agent</text>
    <text x="454" y="204" fill="#64748B" font-size="13" font-family="Arial, sans-serif">业务执行协同</text>
    <text x="454" y="238" fill="#334155" font-size="14" font-family="Arial, sans-serif">• 上下文理解与任务判断</text>
    <text x="454" y="266" fill="#334155" font-size="14" font-family="Arial, sans-serif">• 流程分发与协同执行</text>
    <text x="454" y="294" fill="#334155" font-size="14" font-family="Arial, sans-serif">• 与 RAP 自动化平台联动</text>
    <text x="454" y="322" fill="#334155" font-size="14" font-family="Arial, sans-serif">• 在规则边界内执行动作</text>
  </g>

  <g>
    <rect x="800" y="140" width="340" height="220" rx="20" fill="white" stroke="#E2E8F0"/>
    <rect x="800" y="140" width="340" height="4" rx="2" fill="#60A5FA"/>
    <text x="824" y="176" fill="#0F172A" font-size="20" font-family="Arial, sans-serif" font-weight="700">Govern with Agent</text>
    <text x="824" y="204" fill="#64748B" font-size="13" font-family="Arial, sans-serif">治理与优化协同</text>
    <text x="824" y="238" fill="#334155" font-size="14" font-family="Arial, sans-serif">• 日志分析与异常归因</text>
    <text x="824" y="266" fill="#334155" font-size="14" font-family="Arial, sans-serif">• 流程优化建议</text>
    <text x="824" y="294" fill="#334155" font-size="14" font-family="Arial, sans-serif">• 知识沉淀与经验复用</text>
    <text x="824" y="322" fill="#334155" font-size="14" font-family="Arial, sans-serif">• 效果评估与持续迭代</text>
  </g>

  <rect x="130" y="428" width="940" height="190" rx="22" fill="#0F172A"/>
  <g opacity="0.13">
    <path d="M130 478H1070M130 528H1070M130 578H1070" stroke="white"/>
    <path d="M220 428V618M310 428V618M400 428V618M490 428V618M580 428V618M670 428V618M760 428V618M850 428V618M940 428V618" stroke="white"/>
  </g>
  <text x="164" y="468" fill="white" font-size="18" font-family="Arial, sans-serif" font-weight="700">Enterprise Control Plane</text>
  <text x="164" y="496" fill="#94A3B8" font-size="13" font-family="Arial, sans-serif">规则引擎 · 权限模型 · 审计留痕 · 版本策略 · 运行监控 · 安全边界</text>

  <g>
    <rect x="164" y="528" width="150" height="48" rx="12" fill="white" fill-opacity="0.06" stroke="white" stroke-opacity="0.1"/>
    <text x="198" y="558" fill="#E2E8F0" font-size="14" font-family="Arial, sans-serif">Rules</text>
    <rect x="334" y="528" width="150" height="48" rx="12" fill="white" fill-opacity="0.06" stroke="white" stroke-opacity="0.1"/>
    <text x="366" y="558" fill="#E2E8F0" font-size="14" font-family="Arial, sans-serif">Permissions</text>
    <rect x="504" y="528" width="150" height="48" rx="12" fill="white" fill-opacity="0.06" stroke="white" stroke-opacity="0.1"/>
    <text x="542" y="558" fill="#E2E8F0" font-size="14" font-family="Arial, sans-serif">Audit</text>
    <rect x="674" y="528" width="150" height="48" rx="12" fill="white" fill-opacity="0.06" stroke="white" stroke-opacity="0.1"/>
    <text x="704" y="558" fill="#E2E8F0" font-size="14" font-family="Arial, sans-serif">Versioning</text>
    <rect x="844" y="528" width="190" height="48" rx="12" fill="white" fill-opacity="0.06" stroke="white" stroke-opacity="0.1"/>
    <text x="887" y="558" fill="#E2E8F0" font-size="14" font-family="Arial, sans-serif">Observability</text>
  </g>

  <g stroke="url(#accent2)" stroke-width="3" stroke-linecap="round">
    <path d="M230 360V410"/>
    <path d="M600 360V410"/>
    <path d="M970 360V410"/>
  </g>
</svg>
